<svg width="26" height="26" viewBox="0 0 26 26" fill="none" xmlns="http://www.w3.org/2000/svg">
<path d="M24.9167 14.0608H1.08333C0.485331 14.0608 0 13.5755 0 12.9775C0 12.3795 0.485331 11.8942 1.08333 11.8942H24.9167C25.5147 11.8942 26 12.3795 26 12.9775C26 13.5755 25.5147 14.0608 24.9167 14.0608Z" fill="white"/>
<path d="M24.9167 5.75523H1.08333C0.485331 5.75523 0 5.2699 0 4.6719C0 4.07389 0.485331 3.58856 1.08333 3.58856H24.9167C25.5147 3.58856 26 4.07389 26 4.6719C26 5.2699 25.5147 5.75523 24.9167 5.75523Z" fill="white"/>
<path d="M24.9167 22.3663H1.08333C0.485331 22.3663 0 21.8809 0 21.2829C0 20.6849 0.485331 20.1996 1.08333 20.1996H24.9167C25.5147 20.1996 26 20.6849 26 21.2829C26 21.8809 25.5147 22.3663 24.9167 22.3663Z" fill="white"/>
</svg>
