<svg width="207" height="207" viewBox="0 0 207 207" fill="none" xmlns="http://www.w3.org/2000/svg">
<rect width="207" height="207" rx="9" fill="#F2F2F2"/>
<path d="M64.4702 117.812L59.5274 136.265L41.4615 136.647C36.0624 126.633 33 115.175 33 103C33 91.2265 35.8633 80.1239 40.9387 70.3478H40.9426L57.0263 73.2965L64.0719 89.2837C62.5973 93.5828 61.7936 98.1978 61.7936 103C61.7941 108.212 62.7382 113.205 64.4702 117.812Z" fill="#FBBB00"/>
<path d="M173.759 89.7363C174.575 94.0312 175 98.4668 175 103C175 108.083 174.466 113.041 173.447 117.824C169.991 134.1 160.96 148.311 148.449 158.368L148.445 158.364L128.187 157.331L125.32 139.432C133.621 134.564 140.109 126.945 143.527 117.824H105.561V89.7363H144.08H173.759Z" fill="#518EF8"/>
<path d="M148.445 158.364L148.449 158.368C136.282 168.148 120.825 174 104 174C76.9615 174 53.4536 158.887 41.4615 136.647L64.4702 117.813C70.4661 133.815 85.9028 145.206 104 145.206C111.779 145.206 119.066 143.103 125.319 139.432L148.445 158.364Z" fill="#28B446"/>
<path d="M149.319 48.3455L126.318 67.1761C119.846 63.1307 112.196 60.7938 104 60.7938C85.4931 60.7938 69.7677 72.7077 64.0722 89.2837L40.9425 70.3478H40.9387C52.7552 47.5654 76.5596 32 104 32C121.227 32 137.023 38.1365 149.319 48.3455Z" fill="#F14336"/>
</svg>
