<svg width="168" height="39" viewBox="0 0 168 39" fill="none" xmlns="http://www.w3.org/2000/svg">
<path d="M42.7141 12.2399V10.253H57.9804V12.2399H51.6986V31.2022H49.0105V12.2399H42.7141Z" fill="white"/>
<path d="M59.3536 23.664C59.3536 21.2682 59.9916 19.3593 61.2674 17.9373C62.5433 16.5057 64.2282 15.7898 66.3221 15.7898C70.4905 15.7898 72.5747 18.7311 72.5747 24.6136H61.8372C61.9346 25.8505 62.3874 26.9559 63.1958 27.9298C64.0041 28.894 65.2362 29.3761 66.8918 29.3761C68.8105 29.3761 70.4564 29.0596 71.8297 28.4265V30.7786C70.3298 31.3532 68.791 31.6453 67.2132 31.6551C65.84 31.6551 64.6372 31.4408 63.6048 31.0123C62.5822 30.5838 61.7641 29.9945 61.1505 29.2446C60.5467 28.4947 60.0938 27.6522 59.7919 26.7173C59.4997 25.7823 59.3536 24.7646 59.3536 23.664ZM61.9248 22.6414H70.0035C69.8672 21.3071 69.4971 20.2114 68.8933 19.3544C68.2894 18.4973 67.4129 18.0688 66.2637 18.0688C65.1242 18.0688 64.1551 18.4876 63.3565 19.3252C62.5579 20.1628 62.0806 21.2682 61.9248 22.6414Z" fill="white"/>
<path d="M78.0092 29.3323C76.4802 27.7837 75.7156 25.9138 75.7156 23.7225C75.7156 21.5311 76.4802 19.6612 78.0092 18.1126C79.548 16.5641 81.4034 15.7898 83.5752 15.7898C84.9095 15.7898 86.2584 15.9408 87.6219 16.2427V18.5217C86.2681 18.2198 84.9192 18.0688 83.5752 18.0688C82.0559 18.0688 80.7752 18.6239 79.7331 19.7342C78.691 20.8348 78.1699 22.1642 78.1699 23.7225C78.1699 25.2807 78.691 26.615 79.7331 27.7253C80.7849 28.8258 82.0656 29.3761 83.5752 29.3761C84.9095 29.3761 86.2584 29.2251 87.6219 28.9232V31.2022C86.2681 31.5041 84.9192 31.6551 83.5752 31.6551C81.4034 31.6551 79.548 30.8808 78.0092 29.3323Z" fill="white"/>
<path d="M91.1572 31.2022V8.76294H93.6407V17.2945C95.2964 16.3011 96.9083 15.7996 98.4763 15.7898C99.9956 15.7898 101.252 16.2232 102.245 17.09C103.249 17.9568 103.75 19.1304 103.75 20.6108V31.2022H101.208V20.6108C101.208 18.9746 100.2 18.1565 98.1841 18.1565C96.7719 18.1565 95.2575 18.697 93.6407 19.7781V31.2022H91.1572Z" fill="white"/>
<path d="M107.3 23.664C107.3 21.2682 107.938 19.3593 109.214 17.9373C110.49 16.5057 112.175 15.7898 114.269 15.7898C118.437 15.7898 120.521 18.7311 120.521 24.6136H109.784C109.881 25.8505 110.334 26.9559 111.142 27.9298C111.951 28.894 113.183 29.3761 114.838 29.3761C116.757 29.3761 118.403 29.0596 119.776 28.4265V30.7786C118.276 31.3532 116.737 31.6453 115.16 31.6551C113.786 31.6551 112.584 31.4408 111.551 31.0123C110.529 30.5838 109.711 29.9945 109.097 29.2446C108.493 28.4947 108.04 27.6522 107.738 26.7173C107.446 25.7823 107.3 24.7646 107.3 23.664ZM109.871 22.6414H117.95C117.814 21.3071 117.444 20.2114 116.84 19.3544C116.236 18.4973 115.359 18.0688 114.21 18.0688C113.071 18.0688 112.102 18.4876 111.303 19.3252C110.504 20.1628 110.027 21.2682 109.871 22.6414Z" fill="white"/>
<path d="M123.662 26.4689C123.662 25.1346 124.149 24.0195 125.123 23.1235C126.097 22.2275 127.465 21.7795 129.228 21.7795H133.202V20.64C133.202 19.7245 133.021 19.072 132.661 18.6824C132.301 18.2928 131.634 18.098 130.66 18.098C129.939 18.098 128.843 18.1759 127.373 18.3318L125.357 18.5801V16.2427C126.438 16.1648 127.236 16.0966 127.753 16.0382C129.506 15.8823 130.811 15.7996 131.668 15.7898C133.08 15.7898 134.117 16.1891 134.779 16.9878C135.442 17.7864 135.773 18.7067 135.773 19.7488V31.2022H133.888L133.465 29.7413H133.377C131.643 30.9198 129.978 31.5041 128.381 31.4944C126.861 31.4944 125.693 30.9831 124.875 29.9605C124.066 28.9281 123.662 27.7642 123.662 26.4689ZM126.262 26.4689C126.262 27.2481 126.467 27.9493 126.876 28.5726C127.285 29.1862 127.957 29.493 128.892 29.493C129.554 29.493 130.294 29.3517 131.113 29.0693C131.931 28.7771 132.617 28.4411 133.172 28.0613H133.202V23.7809H129.228C127.251 23.7809 126.262 24.6769 126.262 26.4689Z" fill="white"/>
<path d="M139.732 29.2592L141.339 27.55C141.719 27.8519 142.21 28.1636 142.814 28.485C143.973 29.0791 144.967 29.3761 145.795 29.3761C146.535 29.3761 147.265 29.1716 147.986 28.7625C148.707 28.3535 149.067 27.7789 149.067 27.0387C149.067 26.3569 148.721 25.8018 148.03 25.3733C147.338 24.935 146.174 24.4139 144.538 23.8101C143.856 23.5666 143.326 23.367 142.946 23.2111C142.576 23.0553 142.147 22.8216 141.66 22.5099C141.173 22.1983 140.813 21.833 140.579 21.4142C140.345 20.9955 140.229 20.5182 140.229 19.9826C140.229 18.7262 140.808 17.7133 141.967 16.9439C143.126 16.1745 144.431 15.7898 145.882 15.7898C146.963 15.7898 148.122 16.0528 149.359 16.5787C149.875 16.8027 150.362 17.0608 150.82 17.353L149.301 19.1791C148.979 18.9843 148.629 18.8041 148.249 18.6386C147.372 18.2587 146.583 18.0688 145.882 18.0688C145.064 18.0688 144.329 18.249 143.676 18.6093C143.033 18.9697 142.712 19.4274 142.712 19.9826C142.712 20.1579 142.79 20.3332 142.946 20.5085C143.111 20.6741 143.369 20.8396 143.72 21.0052C144.071 21.161 144.368 21.2876 144.611 21.385C144.864 21.4824 145.22 21.6139 145.678 21.7795C146.798 22.1983 147.63 22.5343 148.176 22.7875C148.721 23.031 149.296 23.3621 149.9 23.7809C150.513 24.1997 150.942 24.672 151.185 25.198C151.429 25.7141 151.55 26.3277 151.55 27.0387C151.55 28.0516 151.21 28.9232 150.528 29.6537C149.846 30.3841 149.086 30.9003 148.249 31.2022C147.411 31.5041 146.593 31.6551 145.795 31.6551C144.577 31.6551 143.194 31.2558 141.646 30.4572C140.964 30.0968 140.326 29.6975 139.732 29.2592Z" fill="white"/>
<path d="M154.779 23.664C154.779 21.2682 155.417 19.3593 156.693 17.9373C157.969 16.5057 159.653 15.7898 161.747 15.7898C165.916 15.7898 168 18.7311 168 24.6136H157.263C157.36 25.8505 157.813 26.9559 158.621 27.9298C159.429 28.894 160.662 29.3761 162.317 29.3761C164.236 29.3761 165.882 29.0596 167.255 28.4265V30.7786C165.755 31.3532 164.216 31.6453 162.639 31.6551C161.265 31.6551 160.063 31.4408 159.03 31.0123C158.008 30.5838 157.189 29.9945 156.576 29.2446C155.972 28.4947 155.519 27.6522 155.217 26.7173C154.925 25.7823 154.779 24.7646 154.779 23.664ZM157.35 22.6414H165.429C165.293 21.3071 164.922 20.2114 164.319 19.3544C163.715 18.4973 162.838 18.0688 161.689 18.0688C160.55 18.0688 159.58 18.4876 158.782 19.3252C157.983 20.1628 157.506 21.2682 157.35 22.6414Z" fill="white"/>
<path d="M14.1925 23.9694C13.0321 22.8089 12.2995 21.2713 12.1298 19.6395L11.3666 12.302C11.01 9.37847 13.6403 6.74864 16.5634 7.10515L23.9009 7.86839C27.1984 8.16404 29.9978 10.9636 30.2935 14.261L31.0567 21.5984C31.2518 23.4735 30.3159 25.2848 28.6727 26.213C28.1481 26.5092 27.4828 26.3245 27.1864 25.7996C26.8901 25.2751 27.0751 24.6097 27.5997 24.3134C28.4867 23.8124 28.9919 22.8354 28.8867 21.8241L28.1235 14.4866C27.8807 12.152 26.0099 10.2812 23.6753 10.0383L16.3377 9.27515C14.7614 9.08293 13.3443 10.5003 13.5365 12.0764L14.2998 19.4138C14.5422 21.7444 16.407 23.6129 18.7361 23.8608L19.9882 23.962C20.5886 24.0105 21.0362 24.5365 20.9877 25.137C20.9391 25.7375 20.4131 26.185 19.8126 26.1365L18.5474 26.0344C18.5391 26.0337 18.5307 26.0329 18.5224 26.0321C16.8906 25.8624 15.3529 25.1298 14.1925 23.9694ZM12.8145 31.74L20.152 32.5032C23.0755 32.8597 25.7054 30.2295 25.3489 27.3063L24.5856 19.9689C24.29 16.6713 21.4905 13.872 18.193 13.5763L17.1537 13.4736C15.7077 13.3886 15.5056 15.4458 16.9391 15.6446L17.9697 15.7465C20.3032 15.9905 22.1729 17.8608 22.4156 20.1945L23.1789 27.532C23.3711 29.1083 21.9537 30.5254 20.3776 30.3332L13.0402 29.57C10.7055 29.3271 8.83474 27.4564 8.59189 25.1217L7.82865 17.7842C7.73231 16.8578 8.14907 15.9519 8.91624 15.42C9.41135 15.0768 9.53446 14.3972 9.19125 13.9021C8.84817 13.4073 8.16846 13.2839 7.67331 13.6271C6.25201 14.6124 5.48002 16.2918 5.6587 18.0099L6.42193 25.3474C6.59166 26.9791 7.3242 28.5168 8.48463 29.6773C9.64507 30.8377 11.1828 31.5703 12.8145 31.74Z" fill="#7EA8FB"/>
<path d="M15.4391 22.515C14.2787 21.3545 13.5461 19.8169 13.3764 18.1851L12.6132 10.8476C12.2566 7.92406 14.8869 5.29423 17.81 5.65075L25.1475 6.41398C28.445 6.70963 31.2444 9.50915 31.5401 12.8066L32.3033 20.144C32.4983 22.0191 31.5625 23.8304 29.9192 24.7586C29.3947 25.0548 28.7294 24.8701 28.433 24.3452C28.1366 23.8207 28.3217 23.1553 28.8463 22.859C29.7333 22.358 30.2385 21.381 30.1333 20.3697L29.3701 13.0322C29.1273 10.6976 27.2565 8.82679 24.9218 8.58394L17.5843 7.82074C16.008 7.62852 14.5909 9.04589 14.7831 10.622L15.5463 17.9594C15.7888 20.29 17.6536 22.1585 19.9827 22.4064L21.2347 22.5076C21.8352 22.556 22.2828 23.0821 22.2342 23.6826C22.1857 24.2831 21.6597 24.7306 21.0592 24.6821L19.794 24.5799C19.7856 24.5793 19.7773 24.5785 19.769 24.5777C18.1372 24.408 16.5995 23.6754 15.4391 22.515ZM14.0611 30.2855L21.3986 31.0488C24.3221 31.4053 26.952 28.775 26.5954 25.8519L25.8322 18.5144C25.5366 15.2169 22.737 12.4175 19.4396 12.1219L18.4002 12.0192C16.9543 11.9342 16.7522 13.9914 18.1857 14.1902L19.2162 14.2921C21.5498 14.5361 23.4194 16.4063 23.6622 18.7401L24.4254 26.0776C24.6177 27.6539 23.2003 29.071 21.6242 28.8788L14.2868 28.1156C11.9521 27.8727 10.0813 26.0019 9.83847 23.6673L9.07524 16.3298C8.9789 15.4034 9.39565 14.4975 10.1628 13.9656C10.6579 13.6224 10.781 12.9427 10.4378 12.4477C10.0947 11.9529 9.41505 11.8294 8.91989 12.1726C7.49859 13.158 6.7266 14.8374 6.90528 16.5555L7.66851 23.893C7.83824 25.5247 8.57078 27.0624 9.73122 28.2228C10.8917 29.3833 12.4293 30.1159 14.0611 30.2855Z" fill="#6B9BF9"/>
</svg>
